{
  "accessors": [
    {
      "bufferView": 2,
      "componentType": 5126,
      "count": 22180,
      "max": [
        1.967671275138855,
        1.0178858041763306,
        0.7623293399810791
      ],
      "min": [
        -1.883499264717102,
        0.001337625551968813,
        -0.7623292207717896
      ],
      "type": "VEC3"
    },
    {
      "bufferView": 2,
      "byteOffset": 266160,
      "componentType": 5126,
      "count": 22180,
      "max": [
        1.0,
        1.0,
        1.0
      ],
      "min": [
        -1.0,
        -1.0,
        -1.0
      ],
      "type": "VEC3"
    },
    {
      "bufferView": 3,
      "componentType": 5126,
      "count": 22180,
      "max": [
        1.0,
        1.0,
        1.0,
        1.0
      ],
      "min": [
        -1.0,
        -1.0,
        -1.0,
        -1.0
      ],
      "type": "VEC4"
    },
    {
      "bufferView": 1,
      "componentType": 5126,
      "count": 22180,
      "max": [
        0.9981689453125,
        0.9907271862030029
      ],
      "min": [
        0.0018310546875,
        0.0018310546875
      ],
      "type": "VEC2"
    },
    {
      "bufferView": 1,
      "byteOffset": 177440,
      "componentType": 5126,
      "count": 22180,
      "max": [
        0.9981689453125,
        0.9907271862030029
      ],
      "min": [
        0.0018310546875,
        0.0018310546875
      ],
      "type": "VEC2"
    },
    {
      "bufferView": 0,
      "componentType": 5125,
      "count": 74391,
      "type": "SCALAR"
    }
  ],
  "asset": {
    "extras": {
      "author": "Artyom (https://sketchfab.com/art_yom_3d)",
      "license": "CC-BY-4.0 (http://creativecommons.org/licenses/by/4.0/)",
      "source": "https://sketchfab.com/3d-models/low-poly-jaguar-xj-s-9f32690c423d49a7b536ec8ee97155a5",
      "title": "Low-poly Jaguar XJ-S"
    },
    "generator": "Sketchfab-12.82.3",
    "version": "2.0"
  },
  "bufferViews": [
    {
      "buffer": 0,
      "byteLength": 297564,
      "name": "floatBufferViews",
      "target": 34963
    },
    {
      "buffer": 0,
      "byteLength": 354880,
      "byteOffset": 297564,
      "byteStride": 8,
      "name": "floatBufferViews",
      "target": 34962
    },
    {
      "buffer": 0,
      "byteLength": 532320,
      "byteOffset": 652444,
      "byteStride": 12,
      "name": "floatBufferViews",
      "target": 34962
    },
    {
      "buffer": 0,
      "byteLength": 354880,
      "byteOffset": 1184764,
      "byteStride": 16,
      "name": "floatBufferViews",
      "target": 34962
    }
  ],
  "buffers": [
    {
      "byteLength": 1539644,
      "uri": "scene.bin"
    }
  ],
  "extensionsUsed": [
    "KHR_materials_clearcoat",
    "KHR_materials_transmission"
  ],
  "images": [
    {
      "uri": "textures/jaguar_baseColor.png"
    },
    {
      "uri": "textures/jaguar_metallicRoughness.png"
    },
    {
      "uri": "textures/jaguar_normal.png"
    },
    {
      "uri": "textures/jaguar_clearcoat.png"
    },
    {
      "uri": "textures/jaguar_transmission.png"
    }
  ],
  "materials": [
    {
      "alphaMode": "BLEND",
      "doubleSided": true,
      "extensions": {
        "KHR_materials_clearcoat": {
          "clearcoatFactor": 1.0,
          "clearcoatRoughnessFactor": 0.07,
          "clearcoatTexture": {
            "index": 3
          }
        },
        "KHR_materials_transmission": {
          "transmissionFactor": 1.0,
          "transmissionTexture": {
            "index": 4
          }
        }
      },
      "name": "jaguar",
      "normalTexture": {
        "index": 2
      },
      "occlusionTexture": {
        "index": 1
      },
      "pbrMetallicRoughness": {
        "baseColorTexture": {
          "index": 0
        },
        "metallicRoughnessTexture": {
          "index": 1
        }
      }
    }
  ],
  "meshes": [
    {
      "name": "JaguarModel_jaguar_0",
      "primitives": [
        {
          "attributes": {
            "NORMAL": 1,
            "POSITION": 0,
            "TANGENT": 2,
            "TEXCOORD_0": 3,
            "TEXCOORD_1": 4
          },
          "indices": 5,
          "material": 0,
          "mode": 4
        }
      ]
    }
  ],
  "nodes": [
    {
      "children": [
        1
      ],
      "matrix": [
        1.0,
        0.0,
        0.0,
        0.0,
        0.0,
        2.220446049250313e-16,
        -1.0,
        0.0,
        0.0,
        1.0,
        2.220446049250313e-16,
        0.0,
        0.0,
        0.0,
        0.0,
        1.0
      ],
      "name": "Sketchfab_model"
    },
    {
      "children": [
        2
      ],
      "matrix": [
        1.0,
        0.0,
        0.0,
        0.0,
        0.0,
        0.0,
        1.0,
        0.0,
        0.0,
        -1.0,
        0.0,
        0.0,
        0.0,
        0.0,
        0.0,
        1.0
      ],
      "name": "jaguarModel.fbx"
    },
    {
      "children": [
        3
      ],
      "name": "RootNode"
    },
    {
      "children": [
        4
      ],
      "name": "JaguarModel"
    },
    {
      "mesh": 0,
      "name": "JaguarModel_jaguar_0"
    }
  ],
  "samplers": [
    {
      "magFilter": 9729,
      "minFilter": 9987,
      "wrapS": 10497,
      "wrapT": 10497
    }
  ],
  "scene": 0,
  "scenes": [
    {
      "name": "Sketchfab_Scene",
      "nodes": [
        0
      ]
    }
  ],
  "textures": [
    {
      "sampler": 0,
      "source": 0
    },
    {
      "sampler": 0,
      "source": 1
    },
    {
      "sampler": 0,
      "source": 2
    },
    {
      "sampler": 0,
      "source": 3
    },
    {
      "sampler": 0,
      "source": 4
    }
  ]
}
